<!DOCTYPE svg PUBLIC "-//W3C//DTD SVG 1.1//EN" "http://www.w3.org/Graphics/SVG/1.1/DTD/svg11.dtd">
<svg version="1.1" id="svg3054" xmlns:svg="http://www.w3.org/2000/svg"
	 xmlns="http://www.w3.org/2000/svg" xmlns:xlink="http://www.w3.org/1999/xlink" x="0px" y="0px" width="411.344px"
	 height="87.975px" viewBox="-161.685 161.685 411.344 87.975" enable-background="new -161.685 161.685 411.344 87.975"
	 xml:space="preserve">
<g id="layer1" transform="translate(-341.72699,-212.40397)">
	<path id="path36" fill="#A3A5A5" d="M435.962,374.089h-47.57v87.975h24.539V429.3h23.103c11.694,0,21.175-1.939,28.445-5.823
		c7.282-3.883,10.912-11.291,10.912-22.221c0-10.35-3.642-17.461-10.923-21.345C457.181,376.033,447.678,374.089,435.962,374.089
		 M433.39,392.041c7.397,0,12.229,0.66,14.498,1.977c2.274,1.322,3.409,3.73,3.409,7.233c0,3.515-1.135,6.075-3.409,7.679
		c-2.27,1.613-7.101,2.412-14.498,2.412h-20.459v-19.301H433.39L433.39,392.041z M513.851,408.649v19.302h43.186v-19.302H513.851z
		 M483.423,374.089v23.339h21.861v-23.339H483.423z M371.883,374.089h-24.54v34.989h-44.166v-34.989h-24.54v87.975h24.54v-32.819
		h44.166v32.819h24.54V374.089z M264.364,374.089h-84.322v87.975h24.534V429.3h59.788v-20.2h-59.788v-14.812h59.788V374.089z
		 M580.843,374.089h-17.561l9.816,44.85l-9.816,43.125h17.561l10.543-43.125L580.843,374.089L580.843,374.089z M483.423,438.725
		v23.339h21.861v-23.339H483.423z"/>
</g>
</svg>
