<svg fill="none" height="16" viewBox="0 0 16 16" width="16" xmlns="http://www.w3.org/2000/svg"><path d="m7.99935 1.33333c-1.41449 0-2.77104.56191-3.77124 1.5621-1.00019 1.00019-1.56209 2.35675-1.56209 3.77124 0 3.60003 4.7 7.66663 4.9 7.84003.12075.1033.27443.16.43333.16s.31258-.0567.43333-.16c.23334-.1734 4.90002-4.24 4.90002-7.84003 0-1.41449-.5619-2.77105-1.5621-3.77124s-2.35676-1.5621-3.77125-1.5621zm0 11.76667c-1.42-1.3333-4-4.20667-4-6.43333 0-1.06087.42143-2.07829 1.17157-2.82843.75015-.75015 1.76756-1.17157 2.82843-1.17157 1.06086 0 2.07825.42142 2.82845 1.17157.7501.75014 1.1715 1.76756 1.1715 2.82843 0 2.22666-2.57995 5.10663-3.99995 6.43333zm0-9.1c-.52742 0-1.04299.1564-1.48152.44941-.43853.29302-.78033.7095-.98216 1.19677s-.25464 1.02344-.15175 1.54073c.10289.51728.35687.99243.72981 1.36537s.8481.62692 1.36538.72981c.51728.1029 1.05346.05009 1.54073-.15174.48727-.20184.90374-.54363 1.19676-.98216.293-.43853.4494-.95411.4494-1.48152 0-.70725-.2809-1.38552-.78103-1.88562-.5001-.5001-1.17838-.78105-1.88562-.78105zm0 4c-.26371 0-.5215-.0782-.74076-.22471-.21927-.14651-.39016-.35474-.49108-.59838-.10092-.24363-.12732-.51172-.07588-.77036.05145-.25865.17844-.49622.36491-.68269s.42405-.31346.68269-.36491c.25864-.05144.52673-.02504.77036.07588.24364.10091.45188.27181.59838.49108.14651.21926.22471.47705.22471.74076 0 .35362-.14047.69276-.39052.94281-.25005.25004-.58919.39052-.94281.39052z" fill="#000"/></svg>